<mxfile host="app.diagrams.net" modified="2023-12-19T09:22:19.988Z" agent="Mozilla/5.0 (Windows NT 10.0; Win64; x64) AppleWebKit/537.36 (KHTML, like Gecko) Chrome/119.0.0.0 Safari/537.36 OPR/105.0.0.0 (Edition Yx GX)" etag="O55NclCVV7AvT1f2gWhH" version="22.1.11" type="device">
  <diagram name="Страница — 1" id="jLoSlP9_-4K3ZnUMF3ZA">
    <mxGraphModel dx="487" dy="836" grid="1" gridSize="10" guides="1" tooltips="1" connect="1" arrows="1" fold="1" page="1" pageScale="1" pageWidth="827" pageHeight="1169" math="0" shadow="0">
      <root>
        <mxCell id="0" />
        <mxCell id="1" parent="0" />
        <mxCell id="GZn5BOCDLXZUcvtLd0VB-6" value="Entity" style="swimlane;fontStyle=1;align=center;verticalAlign=top;childLayout=stackLayout;horizontal=1;startSize=26;horizontalStack=0;resizeParent=1;resizeParentMax=0;resizeLast=0;collapsible=1;marginBottom=0;whiteSpace=wrap;html=1;" parent="1" vertex="1">
          <mxGeometry x="310" y="50" width="140" height="140" as="geometry" />
        </mxCell>
        <mxCell id="GZn5BOCDLXZUcvtLd0VB-7" value="~name: String" style="text;strokeColor=none;fillColor=none;align=left;verticalAlign=top;spacingLeft=4;spacingRight=4;overflow=hidden;rotatable=0;points=[[0,0.5],[1,0.5]];portConstraint=eastwest;whiteSpace=wrap;html=1;" parent="GZn5BOCDLXZUcvtLd0VB-6" vertex="1">
          <mxGeometry y="26" width="140" height="26" as="geometry" />
        </mxCell>
        <mxCell id="GZn5BOCDLXZUcvtLd0VB-8" value="" style="line;strokeWidth=1;fillColor=none;align=left;verticalAlign=middle;spacingTop=-1;spacingLeft=3;spacingRight=3;rotatable=0;labelPosition=right;points=[];portConstraint=eastwest;strokeColor=inherit;" parent="GZn5BOCDLXZUcvtLd0VB-6" vertex="1">
          <mxGeometry y="52" width="140" height="8" as="geometry" />
        </mxCell>
        <mxCell id="GZn5BOCDLXZUcvtLd0VB-9" value="+equals(Object) : boolean&lt;br&gt;+hashCode(): int&lt;br&gt;+toString(): String&lt;br&gt;+getName(): String" style="text;strokeColor=none;fillColor=none;align=left;verticalAlign=top;spacingLeft=4;spacingRight=4;overflow=hidden;rotatable=0;points=[[0,0.5],[1,0.5]];portConstraint=eastwest;whiteSpace=wrap;html=1;" parent="GZn5BOCDLXZUcvtLd0VB-6" vertex="1">
          <mxGeometry y="60" width="140" height="80" as="geometry" />
        </mxCell>
        <mxCell id="GZn5BOCDLXZUcvtLd0VB-23" value="Malish" style="swimlane;fontStyle=1;align=center;verticalAlign=top;childLayout=stackLayout;horizontal=1;startSize=26;horizontalStack=0;resizeParent=1;resizeParentMax=0;resizeLast=0;collapsible=1;marginBottom=0;whiteSpace=wrap;html=1;" parent="1" vertex="1">
          <mxGeometry x="50" y="400" width="220" height="186" as="geometry" />
        </mxCell>
        <mxCell id="HE3kb9ugVIq0VgC2PbEb-2" value="+name:String" style="text;html=1;align=center;verticalAlign=middle;resizable=0;points=[];autosize=1;strokeColor=none;fillColor=none;" vertex="1" parent="GZn5BOCDLXZUcvtLd0VB-23">
          <mxGeometry y="26" width="220" height="30" as="geometry" />
        </mxCell>
        <mxCell id="GZn5BOCDLXZUcvtLd0VB-25" value="lol" style="line;strokeWidth=1;fillColor=none;align=left;verticalAlign=middle;spacingTop=-1;spacingLeft=3;spacingRight=3;rotatable=0;labelPosition=right;points=[];portConstraint=eastwest;strokeColor=inherit;" parent="GZn5BOCDLXZUcvtLd0VB-23" vertex="1">
          <mxGeometry y="56" width="220" height="24" as="geometry" />
        </mxCell>
        <mxCell id="GZn5BOCDLXZUcvtLd0VB-26" value="+ifNotAtHome():void&lt;br&gt;+excuse(): String&lt;br&gt;+didntFear():void&lt;br style=&quot;border-color: var(--border-color);&quot;&gt;+wish(Karlson, Places):void&lt;br style=&quot;border-color: var(--border-color);&quot;&gt;+sayPhrase():void&lt;br style=&quot;border-color: var(--border-color);&quot;&gt;+flyWithFriend(Karlson, Places):void" style="text;strokeColor=none;fillColor=none;align=left;verticalAlign=top;spacingLeft=4;spacingRight=4;overflow=hidden;rotatable=0;points=[[0,0.5],[1,0.5]];portConstraint=eastwest;whiteSpace=wrap;html=1;" parent="GZn5BOCDLXZUcvtLd0VB-23" vertex="1">
          <mxGeometry y="80" width="220" height="106" as="geometry" />
        </mxCell>
        <mxCell id="GZn5BOCDLXZUcvtLd0VB-30" value="Karlson" style="swimlane;fontStyle=1;align=center;verticalAlign=top;childLayout=stackLayout;horizontal=1;startSize=26;horizontalStack=0;resizeParent=1;resizeParentMax=0;resizeLast=0;collapsible=1;marginBottom=0;whiteSpace=wrap;html=1;" parent="1" vertex="1">
          <mxGeometry x="550" y="350" width="320" height="166" as="geometry" />
        </mxCell>
        <mxCell id="HE3kb9ugVIq0VgC2PbEb-4" value="+name:String" style="text;html=1;align=center;verticalAlign=middle;resizable=0;points=[];autosize=1;strokeColor=none;fillColor=none;" vertex="1" parent="GZn5BOCDLXZUcvtLd0VB-30">
          <mxGeometry y="26" width="320" height="30" as="geometry" />
        </mxCell>
        <mxCell id="GZn5BOCDLXZUcvtLd0VB-32" value="" style="line;strokeWidth=1;fillColor=none;align=left;verticalAlign=middle;spacingTop=-1;spacingLeft=3;spacingRight=3;rotatable=0;labelPosition=right;points=[];portConstraint=eastwest;strokeColor=inherit;" parent="GZn5BOCDLXZUcvtLd0VB-30" vertex="1">
          <mxGeometry y="56" width="320" height="24" as="geometry" />
        </mxCell>
        <mxCell id="GZn5BOCDLXZUcvtLd0VB-33" value="+scream(Malish):void&lt;br style=&quot;border-color: var(--border-color);&quot;&gt;+readyForAFlight():void&lt;br style=&quot;border-color: var(--border-color);&quot;&gt;+pressTheButton():void&lt;br style=&quot;border-color: var(--border-color);&quot;&gt;+increaseHeight(Malish):void&lt;br style=&quot;border-color: var(--border-color);&quot;&gt;+fly(Places):void" style="text;strokeColor=none;fillColor=none;align=left;verticalAlign=top;spacingLeft=4;spacingRight=4;overflow=hidden;rotatable=0;points=[[0,0.5],[1,0.5]];portConstraint=eastwest;whiteSpace=wrap;html=1;" parent="GZn5BOCDLXZUcvtLd0VB-30" vertex="1">
          <mxGeometry y="80" width="320" height="86" as="geometry" />
        </mxCell>
        <mxCell id="GZn5BOCDLXZUcvtLd0VB-41" value="ForEgine" style="swimlane;fontStyle=0;childLayout=stackLayout;horizontal=1;startSize=26;fillColor=none;horizontalStack=0;resizeParent=1;resizeParentMax=0;resizeLast=0;collapsible=1;marginBottom=0;whiteSpace=wrap;html=1;" parent="1" vertex="1">
          <mxGeometry x="400" y="570" width="150" height="110" as="geometry" />
        </mxCell>
        <mxCell id="GZn5BOCDLXZUcvtLd0VB-42" value="+testEngine(): void" style="text;strokeColor=none;fillColor=none;align=left;verticalAlign=top;spacingLeft=4;spacingRight=4;overflow=hidden;rotatable=0;points=[[0,0.5],[1,0.5]];portConstraint=eastwest;whiteSpace=wrap;html=1;" parent="GZn5BOCDLXZUcvtLd0VB-41" vertex="1">
          <mxGeometry y="26" width="150" height="26" as="geometry" />
        </mxCell>
        <mxCell id="GZn5BOCDLXZUcvtLd0VB-43" value="smoothAndReliable:String&lt;br&gt;+buzz():void&lt;br&gt;+rattle():void" style="text;strokeColor=none;fillColor=none;align=left;verticalAlign=top;spacingLeft=4;spacingRight=4;overflow=hidden;rotatable=0;points=[[0,0.5],[1,0.5]];portConstraint=eastwest;whiteSpace=wrap;html=1;" parent="GZn5BOCDLXZUcvtLd0VB-41" vertex="1">
          <mxGeometry y="52" width="150" height="58" as="geometry" />
        </mxCell>
        <mxCell id="GZn5BOCDLXZUcvtLd0VB-46" value="Places" style="swimlane;fontStyle=0;childLayout=stackLayout;horizontal=1;startSize=26;fillColor=none;horizontalStack=0;resizeParent=1;resizeParentMax=0;resizeLast=0;collapsible=1;marginBottom=0;whiteSpace=wrap;html=1;" parent="1" vertex="1">
          <mxGeometry x="370" y="800" width="140" height="70" as="geometry" />
        </mxCell>
        <mxCell id="GZn5BOCDLXZUcvtLd0VB-47" value="CURRENTPLACE&lt;br&gt;STARTINGPLACE" style="text;strokeColor=none;fillColor=none;align=left;verticalAlign=top;spacingLeft=4;spacingRight=4;overflow=hidden;rotatable=0;points=[[0,0.5],[1,0.5]];portConstraint=eastwest;whiteSpace=wrap;html=1;" parent="GZn5BOCDLXZUcvtLd0VB-46" vertex="1">
          <mxGeometry y="26" width="140" height="44" as="geometry" />
        </mxCell>
        <mxCell id="GZn5BOCDLXZUcvtLd0VB-54" style="edgeStyle=orthogonalEdgeStyle;rounded=0;orthogonalLoop=1;jettySize=auto;html=1;exitX=1;exitY=0.5;exitDx=0;exitDy=0;entryX=0;entryY=0.5;entryDx=0;entryDy=0;" parent="1" source="GZn5BOCDLXZUcvtLd0VB-39" target="GZn5BOCDLXZUcvtLd0VB-41" edge="1">
          <mxGeometry relative="1" as="geometry" />
        </mxCell>
        <mxCell id="GZn5BOCDLXZUcvtLd0VB-56" style="edgeStyle=orthogonalEdgeStyle;rounded=0;orthogonalLoop=1;jettySize=auto;html=1;exitX=0.5;exitY=0;exitDx=0;exitDy=0;entryX=0.5;entryY=1;entryDx=0;entryDy=0;entryPerimeter=0;" parent="1" source="GZn5BOCDLXZUcvtLd0VB-36" target="GZn5BOCDLXZUcvtLd0VB-9" edge="1">
          <mxGeometry relative="1" as="geometry" />
        </mxCell>
        <mxCell id="GZn5BOCDLXZUcvtLd0VB-57" style="edgeStyle=orthogonalEdgeStyle;rounded=0;orthogonalLoop=1;jettySize=auto;html=1;exitX=0.5;exitY=0;exitDx=0;exitDy=0;entryX=0.506;entryY=1;entryDx=0;entryDy=0;entryPerimeter=0;" parent="1" source="GZn5BOCDLXZUcvtLd0VB-23" target="GZn5BOCDLXZUcvtLd0VB-9" edge="1">
          <mxGeometry relative="1" as="geometry" />
        </mxCell>
        <mxCell id="GZn5BOCDLXZUcvtLd0VB-58" style="edgeStyle=orthogonalEdgeStyle;rounded=0;orthogonalLoop=1;jettySize=auto;html=1;exitX=0.5;exitY=0;exitDx=0;exitDy=0;entryX=0.503;entryY=0.993;entryDx=0;entryDy=0;entryPerimeter=0;" parent="1" source="GZn5BOCDLXZUcvtLd0VB-30" target="GZn5BOCDLXZUcvtLd0VB-9" edge="1">
          <mxGeometry relative="1" as="geometry" />
        </mxCell>
        <mxCell id="GZn5BOCDLXZUcvtLd0VB-63" value="ForMalish" style="swimlane;fontStyle=0;childLayout=stackLayout;horizontal=1;startSize=26;fillColor=none;horizontalStack=0;resizeParent=1;resizeParentMax=0;resizeLast=0;collapsible=1;marginBottom=0;whiteSpace=wrap;html=1;" parent="1" vertex="1">
          <mxGeometry x="70" y="700" width="210" height="150" as="geometry" />
        </mxCell>
        <mxCell id="GZn5BOCDLXZUcvtLd0VB-64" value="+ifNotAtHome():void" style="text;strokeColor=none;fillColor=none;align=left;verticalAlign=top;spacingLeft=4;spacingRight=4;overflow=hidden;rotatable=0;points=[[0,0.5],[1,0.5]];portConstraint=eastwest;whiteSpace=wrap;html=1;" parent="GZn5BOCDLXZUcvtLd0VB-63" vertex="1">
          <mxGeometry y="26" width="210" height="26" as="geometry" />
        </mxCell>
        <mxCell id="GZn5BOCDLXZUcvtLd0VB-65" value="+excuse(): String" style="text;strokeColor=none;fillColor=none;align=left;verticalAlign=top;spacingLeft=4;spacingRight=4;overflow=hidden;rotatable=0;points=[[0,0.5],[1,0.5]];portConstraint=eastwest;whiteSpace=wrap;html=1;" parent="GZn5BOCDLXZUcvtLd0VB-63" vertex="1">
          <mxGeometry y="52" width="210" height="26" as="geometry" />
        </mxCell>
        <mxCell id="GZn5BOCDLXZUcvtLd0VB-66" value="+didntFear():void&lt;br&gt;+wish(Karlson, Places):void&lt;br&gt;+sayPhrase():void&lt;br&gt;+flyWithFriend(Karlson, Places):void" style="text;strokeColor=none;fillColor=none;align=left;verticalAlign=top;spacingLeft=4;spacingRight=4;overflow=hidden;rotatable=0;points=[[0,0.5],[1,0.5]];portConstraint=eastwest;whiteSpace=wrap;html=1;" parent="GZn5BOCDLXZUcvtLd0VB-63" vertex="1">
          <mxGeometry y="78" width="210" height="72" as="geometry" />
        </mxCell>
        <mxCell id="GZn5BOCDLXZUcvtLd0VB-67" style="edgeStyle=orthogonalEdgeStyle;rounded=0;orthogonalLoop=1;jettySize=auto;html=1;exitX=0;exitY=0.5;exitDx=0;exitDy=0;entryX=0.5;entryY=0;entryDx=0;entryDy=0;" parent="1" source="GZn5BOCDLXZUcvtLd0VB-26" target="GZn5BOCDLXZUcvtLd0VB-63" edge="1">
          <mxGeometry relative="1" as="geometry" />
        </mxCell>
        <mxCell id="GZn5BOCDLXZUcvtLd0VB-68" value="ForKarlson" style="swimlane;fontStyle=0;childLayout=stackLayout;horizontal=1;startSize=26;fillColor=none;horizontalStack=0;resizeParent=1;resizeParentMax=0;resizeLast=0;collapsible=1;marginBottom=0;whiteSpace=wrap;html=1;" parent="1" vertex="1">
          <mxGeometry x="650" y="630" width="170" height="110" as="geometry" />
        </mxCell>
        <mxCell id="GZn5BOCDLXZUcvtLd0VB-69" value="+scream(Malish):void&lt;br&gt;+readyForAFlight():void&lt;br&gt;+pressTheButton():void&lt;br&gt;+increaseHeight(Malish):void&lt;br&gt;+fly(Places):void" style="text;strokeColor=none;fillColor=none;align=left;verticalAlign=top;spacingLeft=4;spacingRight=4;overflow=hidden;rotatable=0;points=[[0,0.5],[1,0.5]];portConstraint=eastwest;whiteSpace=wrap;html=1;" parent="GZn5BOCDLXZUcvtLd0VB-68" vertex="1">
          <mxGeometry y="26" width="170" height="84" as="geometry" />
        </mxCell>
        <mxCell id="GZn5BOCDLXZUcvtLd0VB-36" value="Engine" style="swimlane;fontStyle=1;align=center;verticalAlign=top;childLayout=stackLayout;horizontal=1;startSize=26;horizontalStack=0;resizeParent=1;resizeParentMax=0;resizeLast=0;collapsible=1;marginBottom=0;whiteSpace=wrap;html=1;" parent="1" vertex="1">
          <mxGeometry x="300" y="375" width="160" height="136" as="geometry" />
        </mxCell>
        <mxCell id="HE3kb9ugVIq0VgC2PbEb-3" value="+name:String" style="text;html=1;align=center;verticalAlign=middle;resizable=0;points=[];autosize=1;strokeColor=none;fillColor=none;" vertex="1" parent="GZn5BOCDLXZUcvtLd0VB-36">
          <mxGeometry y="26" width="160" height="30" as="geometry" />
        </mxCell>
        <mxCell id="GZn5BOCDLXZUcvtLd0VB-38" value="" style="line;strokeWidth=1;fillColor=none;align=left;verticalAlign=middle;spacingTop=-1;spacingLeft=3;spacingRight=3;rotatable=0;labelPosition=right;points=[];portConstraint=eastwest;strokeColor=inherit;" parent="GZn5BOCDLXZUcvtLd0VB-36" vertex="1">
          <mxGeometry y="56" width="160" height="14" as="geometry" />
        </mxCell>
        <mxCell id="GZn5BOCDLXZUcvtLd0VB-39" value="+testEngine(): void&lt;br&gt;smoothAndReliable:String&lt;br style=&quot;border-color: var(--border-color);&quot;&gt;+buzz():void&lt;br style=&quot;border-color: var(--border-color);&quot;&gt;+rattle():void" style="text;strokeColor=none;fillColor=none;align=left;verticalAlign=top;spacingLeft=4;spacingRight=4;overflow=hidden;rotatable=0;points=[[0,0.5],[1,0.5]];portConstraint=eastwest;whiteSpace=wrap;html=1;" parent="GZn5BOCDLXZUcvtLd0VB-36" vertex="1">
          <mxGeometry y="70" width="160" height="66" as="geometry" />
        </mxCell>
        <mxCell id="GZn5BOCDLXZUcvtLd0VB-74" style="edgeStyle=orthogonalEdgeStyle;rounded=0;orthogonalLoop=1;jettySize=auto;html=1;exitX=1;exitY=0.5;exitDx=0;exitDy=0;entryX=0.5;entryY=0;entryDx=0;entryDy=0;" parent="1" source="GZn5BOCDLXZUcvtLd0VB-33" target="GZn5BOCDLXZUcvtLd0VB-68" edge="1">
          <mxGeometry relative="1" as="geometry" />
        </mxCell>
        <mxCell id="GZn5BOCDLXZUcvtLd0VB-79" value="Main" style="swimlane;fontStyle=1;align=center;verticalAlign=top;childLayout=stackLayout;horizontal=1;startSize=26;horizontalStack=0;resizeParent=1;resizeParentMax=0;resizeLast=0;collapsible=1;marginBottom=0;whiteSpace=wrap;html=1;" parent="1" vertex="1">
          <mxGeometry x="850" y="120" width="200" height="108" as="geometry" />
        </mxCell>
        <mxCell id="GZn5BOCDLXZUcvtLd0VB-80" value="+main(String[]): void&amp;nbsp;&lt;br&gt;+story(Karlson , Malish , Engine)" style="text;strokeColor=none;fillColor=none;align=left;verticalAlign=top;spacingLeft=4;spacingRight=4;overflow=hidden;rotatable=0;points=[[0,0.5],[1,0.5]];portConstraint=eastwest;whiteSpace=wrap;html=1;" parent="GZn5BOCDLXZUcvtLd0VB-79" vertex="1">
          <mxGeometry y="26" width="200" height="74" as="geometry" />
        </mxCell>
        <mxCell id="GZn5BOCDLXZUcvtLd0VB-81" value="" style="line;strokeWidth=1;fillColor=none;align=left;verticalAlign=middle;spacingTop=-1;spacingLeft=3;spacingRight=3;rotatable=0;labelPosition=right;points=[];portConstraint=eastwest;strokeColor=inherit;" parent="GZn5BOCDLXZUcvtLd0VB-79" vertex="1">
          <mxGeometry y="100" width="200" height="8" as="geometry" />
        </mxCell>
      </root>
    </mxGraphModel>
  </diagram>
</mxfile>
